<?xml version="1.0" encoding="UTF-8"?>
<svg width="900" height="450" xmlns="http://www.w3.org/2000/svg">
<defs>
    <style>
        text { font-family: Arial, sans-serif; }
        .title { font-size: 18px; font-weight: bold; }
        .label { font-size: 14px; }
    </style>
</defs>
<line x1="99.0" y1="370" x2="801.0" y2="370" stroke="black" stroke-width="2" marker-end="url(#arrowX)"/>
<line x1="450" y1="390" x2="450" y2="172.0" stroke="black" stroke-width="2" marker-end="url(#arrowY)"/>
<defs>
    <marker id="arrowX" markerWidth="10" markerHeight="10" refX="5" refY="3" orient="auto" markerUnits="strokeWidth">
        <path d="M0,0 L0,6 L9,3 z" fill="black" />
    </marker>
    <marker id="arrowY" markerWidth="10" markerHeight="10" refX="5" refY="3" orient="auto" markerUnits="strokeWidth">
        <path d="M0,0 L0,6 L9,3 z" fill="black" />
    </marker>
</defs>
<polyline points="352.5,370.0 356.4,368.35 360.3,366.7 364.2,365.05 368.1,363.4 372.0,361.75 375.9,360.1 379.8,358.45 383.7,356.8 387.6,355.15 391.5,353.5 395.4,351.85 399.3,350.2 403.2,348.55 407.1,346.9 411.0,345.25 414.9,343.6 418.8,341.95 422.7,340.3 426.6,338.65 430.5,337.0 434.4,335.35 438.3,333.7 442.2,332.05 446.1,330.4 450.0,328.75 453.9,327.1 457.8,325.45 461.7,323.8 465.6,322.15 469.5,320.5 473.4,318.85 477.3,317.2 481.2,315.55 485.1,313.9 489.0,312.25 492.9,310.6 496.8,308.95 500.7,307.3 504.6,305.65 508.5,304.0 512.4,302.34999999999997 516.3,300.7 520.2,299.05 524.1,297.4 528.0,295.75 531.9,294.1 535.8,292.45 539.7,290.8 543.6,289.15 547.5,287.5 551.4,289.15 555.3,290.8 559.2,292.45 563.1,294.1 567.0,295.75 570.9,297.4 574.8,299.05 578.7,300.7 582.6,302.34999999999997 586.5,304.0 590.4,305.65 594.3,307.3 598.2,308.95 602.1,310.6 606.0,312.25 609.9,313.9 613.8,315.55 617.7,317.2 621.6,318.85 625.5,320.5 629.4,322.15 633.3,323.8 637.2,325.45 641.1,327.1 645.0,328.75 648.9,330.4 652.8,332.05 656.7,333.7 660.6,335.35 664.5,337.0 668.4,338.65 672.3,340.3 676.2,341.95 680.1,343.6 684.0,345.25 687.9,346.9 691.8,348.55 695.7,350.2 699.6,351.85 703.5,353.5 707.4000000000001,355.15 711.3,356.8 715.2,358.45 719.1,360.1 723.0,361.75 726.9000000000001,363.4 730.8,365.05 734.7,366.7 738.6,368.35 742.5,370.0" fill="none" stroke="red" stroke-width="4"/>
<polyline points="157.5,370.0 161.39999999999998,368.35 165.3,366.7 169.2,365.05 173.09999999999997,363.4 177.0,361.75 180.89999999999998,360.1 184.8,358.45 188.7,356.8 192.59999999999997,355.15 196.5,353.5 200.39999999999998,351.85 204.29999999999998,350.2 208.2,348.55 212.1,346.9 216.0,345.25 219.9,343.6 223.79999999999998,341.95 227.7,340.3 231.6,338.65 235.5,337.0 239.4,335.35 243.29999999999998,333.7 247.2,332.05 251.1,330.4 255.0,328.75 258.9,327.1 262.79999999999995,325.45 266.7,323.8 270.6,322.15 274.5,320.5 278.4,318.85 282.29999999999995,317.2 286.2,315.55 290.1,313.9 294.0,312.25 297.9,310.6 301.79999999999995,308.95 305.7,307.3 309.6,305.65 313.5,304.0 317.4,302.34999999999997 321.29999999999995,300.7 325.2,299.05 329.1,297.4 333.0,295.75 336.9,294.1 340.8,292.45 344.7,290.8 348.6,289.15 352.5,287.5 356.4,289.15 360.3,290.8 364.2,292.45 368.1,294.1 372.0,295.75 375.9,297.4 379.8,299.05 383.7,300.7 387.6,302.34999999999997 391.5,304.0 395.4,305.65 399.3,307.3 403.2,308.95 407.1,310.6 411.0,312.25 414.9,313.9 418.8,315.55 422.7,317.2 426.6,318.85 430.5,320.5 434.4,322.15 438.3,323.8 442.2,325.45 446.1,327.1 450.0,328.75 453.9,330.4 457.8,332.05 461.7,333.7 465.6,335.35 469.5,337.0 473.4,338.65 477.3,340.3 481.2,341.95 485.1,343.6 489.0,345.25 492.9,346.9 496.8,348.55 500.7,350.2 504.6,351.85 508.5,353.5 512.4,355.15 516.3,356.8 520.2,358.45 524.1,360.1 528.0,361.75 531.9,363.4 535.8,365.05 539.7,366.7 543.6,368.35 547.5,370.0" fill="none" stroke="blue" stroke-width="4"/>
<text x="557.5" y="287.5" class="label" fill="red">h/2</text>
<text x="312.5" y="287.5" class="label" fill="blue">h/2</text>
<line x1="352.5" y1="365" x2="352.5" y2="375" stroke="black" stroke-width="2"/>
<text x="352.5" y="395" text-anchor="middle" class="label">-0.5l</text>
<line x1="450.0" y1="365" x2="450.0" y2="375" stroke="black" stroke-width="2"/>
<text x="450.0" y="395" text-anchor="middle" class="label">0</text>
<line x1="547.5" y1="365" x2="547.5" y2="375" stroke="black" stroke-width="2"/>
<text x="547.5" y="395" text-anchor="middle" class="label">0.5l</text>
<text x="450" y="35" text-anchor="middle" class="title">t = l/(2c) (график 3)</text>
<text x="450" y="60" text-anchor="middle" font-size="14px" fill="#666">Волны перекрываются</text>
</svg>