<?xml version="1.0" encoding="UTF-8"?>
<svg width="900" height="400" xmlns="http://www.w3.org/2000/svg">
<defs>
    <style>
        text { font-family: Arial, sans-serif; }
        .title { font-size: 16px; font-weight: bold; }
        .label { font-size: 14px; }
        .small { font-size: 12px; }
    </style>
</defs>
<line x1="44.25" y1="320" x2="855.75" y2="320" stroke="black" stroke-width="2" marker-end="url(#arrowX)"/>
<line x1="450" y1="340" x2="450" y2="199.7" stroke="black" stroke-width="2" marker-end="url(#arrowY)"/>
<defs>
    <marker id="arrowX" markerWidth="10" markerHeight="10" refX="5" refY="3" orient="auto" markerUnits="strokeWidth">
        <path d="M0,0 L0,6 L9,3 z" fill="black" />
    </marker>
    <marker id="arrowY" markerWidth="10" markerHeight="10" refX="5" refY="3" orient="auto" markerUnits="strokeWidth">
        <path d="M0,0 L0,6 L9,3 z" fill="black" />
    </marker>
</defs>
<polyline points="247.5,320.0 255.0,317.9166666666667 262.5,315.8333333333333 270.0,313.75 277.5,311.6666666666667 285.0,309.5833333333333 292.5,307.5 300.0,305.4166666666667 307.5,303.3333333333333 315.0,301.25 322.5,299.1666666666667 330.0,297.0833333333333 337.5,295.0 345.0,292.9166666666667 352.5,290.8333333333333 360.0,288.75 367.5,286.6666666666667 375.0,284.5833333333333 382.5,282.5 390.0,280.4166666666667 397.5,278.3333333333333 405.0,276.25 412.5,274.1666666666667 420.0,272.0833333333333 427.5,270.0 435.0,267.9166666666667 442.5,265.8333333333333 450.0,263.75 457.5,261.6666666666667 465.0,259.5833333333333 472.5,257.5 480.0,255.41666666666666 487.5,253.33333333333334 495.0,251.25 502.5,249.16666666666669 510.0,247.08333333333331 517.5,245.0 525.0,247.08333333333331 532.5,249.16666666666669 540.0,251.25 547.5,253.33333333333334 555.0,255.41666666666666 562.5,257.5 570.0,259.5833333333333 577.5,261.6666666666667 585.0,263.75 592.5,265.8333333333333 600.0,267.9166666666667 607.5,270.0 615.0,272.0833333333333 622.5,274.1666666666667 630.0,276.25 637.5,278.3333333333333 645.0,280.4166666666667 652.5,282.5 660.0,284.5833333333333 667.5,286.6666666666667 675.0,288.75 682.5,290.8333333333333 690.0,292.9166666666667 697.5,295.0 705.0,297.0833333333333 712.5,299.1666666666667 720.0,301.25 727.5,303.3333333333333 735.0,305.4166666666667 742.5,307.5 750.0,309.5833333333333 757.5,311.6666666666667 765.0,313.75 772.5,315.8333333333333 780.0,317.9166666666667 787.5,320.0" fill="none" stroke="red" stroke-width="2" stroke-dasharray="8,4"/>
<polyline points="112.5,320.0 120.0,317.9166666666667 127.5,315.8333333333333 135.0,313.75 142.5,311.6666666666667 150.0,309.5833333333333 157.5,307.5 165.0,305.4166666666667 172.5,303.3333333333333 180.0,301.25 187.5,299.1666666666667 195.0,297.0833333333333 202.5,295.0 210.0,292.9166666666667 217.5,290.8333333333333 225.0,288.75 232.5,286.6666666666667 240.0,284.5833333333333 247.5,282.5 255.0,280.4166666666667 262.5,278.3333333333333 270.0,276.25 277.5,274.1666666666667 285.0,272.0833333333333 292.5,270.0 300.0,267.9166666666667 307.5,265.8333333333333 315.0,263.75 322.5,261.6666666666667 330.0,259.5833333333333 337.5,257.5 345.0,255.41666666666666 352.5,253.33333333333334 360.0,251.25 367.5,249.16666666666669 375.0,247.08333333333331 382.5,245.0 390.0,247.08333333333331 397.5,249.16666666666669 405.0,251.25 412.5,253.33333333333334 420.0,255.41666666666666 427.5,257.5 435.0,259.5833333333333 442.5,261.6666666666667 450.0,263.75 457.5,265.8333333333333 465.0,267.9166666666667 472.5,270.0 480.0,272.0833333333333 487.5,274.1666666666667 495.0,276.25 502.5,278.3333333333333 510.0,280.4166666666667 517.5,282.5 525.0,284.5833333333333 532.5,286.6666666666667 540.0,288.75 547.5,290.8333333333333 555.0,292.9166666666667 562.5,295.0 570.0,297.0833333333333 577.5,299.1666666666667 585.0,301.25 592.5,303.3333333333333 600.0,305.4166666666667 607.5,307.5 615.0,309.5833333333333 622.5,311.6666666666667 630.0,313.75 637.5,315.8333333333333 645.0,317.9166666666667 652.5,320.0" fill="none" stroke="blue" stroke-width="2" stroke-dasharray="8,4"/>
<polyline points="112.5,320.0 120.0,317.9166666666667 127.5,315.8333333333333 135.0,313.75 142.5,311.6666666666667 150.0,309.5833333333333 157.5,307.5 165.0,305.4166666666667 172.5,303.3333333333333 180.0,301.25 187.5,299.1666666666667 195.0,297.0833333333333 202.5,295.0 210.0,292.9166666666667 217.5,290.8333333333333 225.0,288.75 232.5,286.6666666666667 240.0,284.5833333333333 247.5,282.5 255.0,278.3333333333333 262.5,274.16666666666663 270.0,270.0 277.5,265.8333333333333 285.0,261.6666666666667 292.5,257.5 300.0,253.33333333333334 307.5,249.16666666666669 315.0,245.0 322.5,240.83333333333331 330.0,236.66666666666666 337.5,232.5 345.0,228.33333333333331 352.5,224.16666666666669 360.0,220.0 367.5,215.83333333333334 375.0,211.66666666666666 382.5,207.5 390.0,207.5 397.5,207.5 405.0,207.5 412.5,207.5 420.0,207.5 427.5,207.5 435.0,207.5 442.5,207.5 450.0,207.5 457.5,207.5 465.0,207.5 472.5,207.5 480.0,207.5 487.5,207.5 495.0,207.5 502.5,207.5 510.0,207.5 517.5,207.5 525.0,211.66666666666666 532.5,215.83333333333334 540.0,220.0 547.5,224.16666666666669 555.0,228.33333333333331 562.5,232.5 570.0,236.66666666666666 577.5,240.83333333333331 585.0,245.0 592.5,249.16666666666669 600.0,253.33333333333334 607.5,257.5 615.0,261.6666666666667 622.5,265.8333333333333 630.0,270.0 637.5,274.16666666666663 645.0,278.3333333333333 652.5,282.5 660.0,284.5833333333333 667.5,286.6666666666667 675.0,288.75 682.5,290.8333333333333 690.0,292.9166666666667 697.5,295.0 705.0,297.0833333333333 712.5,299.1666666666667 720.0,301.25 727.5,303.3333333333333 735.0,305.4166666666667 742.5,307.5 750.0,309.5833333333333 757.5,311.6666666666667 765.0,313.75 772.5,315.8333333333333 780.0,317.9166666666667 787.5,320.0" fill="none" stroke="purple" stroke-width="4"/>
<line x1="382.5" y1="315" x2="382.5" y2="325" stroke="black" stroke-width="2"/>
<text x="382.5" y="345" text-anchor="middle" class="label">-l/4</text>
<line x1="450.0" y1="315" x2="450.0" y2="325" stroke="black" stroke-width="2"/>
<text x="450.0" y="345" text-anchor="middle" class="label">0</text>
<line x1="517.5" y1="315" x2="517.5" y2="325" stroke="black" stroke-width="2"/>
<text x="517.5" y="345" text-anchor="middle" class="label">l/4</text>
<text x="465" y="207.5" class="small">3h/4</text>
<line x1="50" y1="60" x2="100" y2="60" stroke="red" stroke-width="2" stroke-dasharray="8,4"/>
<text x="110" y="65" class="small">правая волна h/2</text>
<line x1="50" y1="80" x2="100" y2="80" stroke="blue" stroke-width="2" stroke-dasharray="8,4"/>
<text x="110" y="85" class="small">левая волна h/2</text>
<line x1="50" y1="100" x2="100" y2="100" stroke="purple" stroke-width="4"/>
<text x="110" y="105" class="small">суммарный профиль</text>
<text x="450" y="30" text-anchor="middle" class="title">t = l/(4c) (волны перекрываются)</text>
</svg>