<?xml version="1.0" encoding="UTF-8"?>
<svg width="900" height="450" xmlns="http://www.w3.org/2000/svg">
<defs>
    <style>
        text { font-family: Arial, sans-serif; }
        .title { font-size: 18px; font-weight: bold; }
        .label { font-size: 14px; }
    </style>
</defs>
<line x1="-18.0" y1="370" x2="918.0" y2="370" stroke="black" stroke-width="2" marker-end="url(#arrowX)"/>
<line x1="450" y1="390" x2="450" y2="172.0" stroke="black" stroke-width="2" marker-end="url(#arrowY)"/>
<defs>
    <marker id="arrowX" markerWidth="10" markerHeight="10" refX="5" refY="3" orient="auto" markerUnits="strokeWidth">
        <path d="M0,0 L0,6 L9,3 z" fill="black" />
    </marker>
    <marker id="arrowY" markerWidth="10" markerHeight="10" refX="5" refY="3" orient="auto" markerUnits="strokeWidth">
        <path d="M0,0 L0,6 L9,3 z" fill="black" />
    </marker>
</defs>
<polyline points="450.0,370.0 453.9,368.35 457.8,366.7 461.7,365.05 465.6,363.4 469.5,361.75 473.4,360.1 477.3,358.45 481.2,356.8 485.1,355.15 489.0,353.5 492.9,351.85 496.8,350.2 500.7,348.55 504.6,346.9 508.5,345.25 512.4,343.6 516.3,341.95 520.2,340.3 524.1,338.65 528.0,337.0 531.9,335.35 535.8,333.7 539.7,332.05 543.6,330.4 547.5,328.75 551.4,327.1 555.3,325.45 559.2,323.8 563.1,322.15 567.0,320.5 570.9,318.85 574.8,317.2 578.7,315.55 582.6,313.9 586.5,312.25 590.4,310.6 594.3,308.95 598.2,307.3 602.1,305.65 606.0,304.0 609.9,302.34999999999997 613.8,300.7 617.7,299.05 621.6,297.4 625.5,295.75 629.4,294.1 633.3,292.45 637.2,290.8 641.1,289.15 645.0,287.5 648.9,289.15 652.8,290.8 656.7,292.45 660.6,294.1 664.5,295.75 668.4,297.4 672.3,299.05 676.2,300.7 680.1,302.34999999999997 684.0,304.0 687.9,305.65 691.8,307.3 695.7,308.95 699.6,310.6 703.5,312.25 707.4000000000001,313.9 711.3,315.55 715.2,317.2 719.1,318.85 723.0,320.5 726.9000000000001,322.15 730.8,323.8 734.7,325.45 738.6,327.1 742.5,328.75 746.4000000000001,330.4 750.3,332.05 754.2,333.7 758.1,335.35 762.0,337.0 765.9000000000001,338.65 769.8,340.3 773.7,341.95 777.6,343.6 781.5,345.25 785.4000000000001,346.9 789.3,348.55 793.2,350.2 797.1,351.85 801.0,353.5 804.9000000000001,355.15 808.8,356.8 812.7,358.45 816.6,360.1 820.5,361.75 824.4000000000001,363.4 828.3,365.05 832.2,366.7 836.1,368.35 840.0,370.0" fill="none" stroke="red" stroke-width="4"/>
<polyline points="60.0,370.0 63.89999999999998,368.35 67.80000000000001,366.7 71.69999999999999,365.05 75.59999999999997,363.4 79.5,361.75 83.39999999999998,360.1 87.30000000000001,358.45 91.19999999999999,356.8 95.09999999999997,355.15 99.0,353.5 102.89999999999998,351.85 106.80000000000001,350.2 110.69999999999999,348.55 114.59999999999997,346.9 118.5,345.25 122.39999999999998,343.6 126.30000000000001,341.95 130.2,340.3 134.09999999999997,338.65 138.0,337.0 141.89999999999998,335.35 145.8,333.7 149.7,332.05 153.59999999999997,330.4 157.5,328.75 161.39999999999998,327.1 165.3,325.45 169.2,323.8 173.09999999999997,322.15 177.0,320.5 180.89999999999998,318.85 184.8,317.2 188.7,315.55 192.59999999999997,313.9 196.5,312.25 200.39999999999998,310.6 204.29999999999998,308.95 208.2,307.3 212.1,305.65 216.0,304.0 219.9,302.34999999999997 223.79999999999998,300.7 227.7,299.05 231.6,297.4 235.5,295.75 239.4,294.1 243.29999999999998,292.45 247.2,290.8 251.1,289.15 255.0,287.5 258.9,289.15 262.79999999999995,290.8 266.7,292.45 270.6,294.1 274.5,295.75 278.4,297.4 282.29999999999995,299.05 286.2,300.7 290.1,302.34999999999997 294.0,304.0 297.9,305.65 301.79999999999995,307.3 305.7,308.95 309.6,310.6 313.5,312.25 317.4,313.9 321.29999999999995,315.55 325.2,317.2 329.1,318.85 333.0,320.5 336.9,322.15 340.8,323.8 344.7,325.45 348.6,327.1 352.5,328.75 356.4,330.4 360.3,332.05 364.2,333.7 368.1,335.35 372.0,337.0 375.9,338.65 379.8,340.3 383.7,341.95 387.6,343.6 391.5,345.25 395.4,346.9 399.3,348.55 403.2,350.2 407.1,351.85 411.0,353.5 414.9,355.15 418.8,356.8 422.7,358.45 426.6,360.1 430.5,361.75 434.4,363.4 438.3,365.05 442.2,366.7 446.1,368.35 450.0,370.0" fill="none" stroke="blue" stroke-width="4"/>
<text x="655.0" y="287.5" class="label" fill="red">h/2</text>
<text x="215.0" y="287.5" class="label" fill="blue">h/2</text>
<line x1="60.0" y1="365" x2="60.0" y2="375" stroke="black" stroke-width="2"/>
<text x="60.0" y="395" text-anchor="middle" class="label">-2.0l</text>
<line x1="255.0" y1="365" x2="255.0" y2="375" stroke="black" stroke-width="2"/>
<text x="255.0" y="395" text-anchor="middle" class="label">-1.0l</text>
<line x1="450.0" y1="365" x2="450.0" y2="375" stroke="black" stroke-width="2"/>
<text x="450.0" y="395" text-anchor="middle" class="label">0</text>
<line x1="645.0" y1="365" x2="645.0" y2="375" stroke="black" stroke-width="2"/>
<text x="645.0" y="395" text-anchor="middle" class="label">1.0l</text>
<line x1="840.0" y1="365" x2="840.0" y2="375" stroke="black" stroke-width="2"/>
<text x="840.0" y="395" text-anchor="middle" class="label">2.0l</text>
<text x="450" y="35" text-anchor="middle" class="title">t = l/c (график 5)</text>
<text x="450" y="60" text-anchor="middle" font-size="14px" fill="#666">Критический момент - волны касаются</text>
</svg>