<?xml version="1.0" encoding="UTF-8"?>
<svg width="900" height="400" xmlns="http://www.w3.org/2000/svg">
<defs>
    <style>
        text { font-family: Arial, sans-serif; }
        .title { font-size: 16px; font-weight: bold; }
        .label { font-size: 14px; }
        .small { font-size: 12px; }
    </style>
</defs>
<line x1="168.60000000000002" y1="320" x2="731.4" y2="320" stroke="black" stroke-width="2" marker-end="url(#arrowX)"/>
<line x1="450" y1="340" x2="450" y2="214.7" stroke="black" stroke-width="2" marker-end="url(#arrowY)"/>
<defs>
    <marker id="arrowX" markerWidth="10" markerHeight="10" refX="5" refY="3" orient="auto" markerUnits="strokeWidth">
        <path d="M0,0 L0,6 L9,3 z" fill="black" />
    </marker>
    <marker id="arrowY" markerWidth="10" markerHeight="10" refX="5" refY="3" orient="auto" markerUnits="strokeWidth">
        <path d="M0,0 L0,6 L9,3 z" fill="black" />
    </marker>
</defs>
<polyline points="90.0,320.0 96.0,316.875 102.0,313.75 108.0,310.625 114.0,307.5 120.0,304.375 126.0,301.25 132.0,298.125 138.0,295.0 144.0,291.875 150.0,288.75 156.0,285.625 162.0,282.5 168.0,279.375 174.0,276.25 180.0,273.125 186.0,270.0 192.0,266.875 198.0,263.75 204.0,260.625 210.0,257.5 216.0,254.375 222.0,251.25 228.0,248.125 234.0,245.0 240.0,248.125 246.0,251.25 252.0,254.375 258.0,257.5 264.0,260.625 270.0,263.75 276.0,266.875 282.0,270.0 288.0,273.125 294.0,276.25 300.0,279.375 306.0,282.5 312.0,285.625 318.0,288.75 324.0,291.875 330.0,295.0 336.0,298.125 342.0,301.25 348.0,304.375 354.0,307.5 360.0,310.625 366.0,313.75 372.0,316.875 378.0,320.0" fill="none" stroke="blue" stroke-width="4"/>
<polyline points="522.0,320.0 528.0,316.875 534.0,313.75 540.0,310.625 546.0,307.5 552.0,304.375 558.0,301.25 564.0,298.125 570.0,295.0 576.0,291.875 582.0,288.75 588.0,285.625 594.0,282.5 600.0,279.375 606.0,276.25 612.0,273.125 618.0,270.0 624.0,266.875 630.0,263.75 636.0,260.625 642.0,257.5 648.0,254.375 654.0,251.25 660.0,248.125 666.0,245.0 672.0,248.125 678.0,251.25 684.0,254.375 690.0,257.5 696.0,260.625 702.0,263.75 708.0,266.875 714.0,270.0 720.0,273.125 726.0,276.25 732.0,279.375 738.0,282.5 744.0,285.625 750.0,288.75 756.0,291.875 762.0,295.0 768.0,298.125 774.0,301.25 780.0,304.375 786.0,307.5 792.0,310.625 798.0,313.75 804.0,316.875 810.0,320.0" fill="none" stroke="red" stroke-width="4"/>
<line x1="378.0" y1="320" x2="522.0" y2="320" stroke="green" stroke-width="4"/>
<line x1="378.0" y1="350" x2="522.0" y2="350" stroke="green" stroke-width="2" marker-start="url(#arrowLeft)" marker-end="url(#arrowRight)"/>
<text x="450" y="370" text-anchor="middle" class="small" fill="green" font-weight="bold">зазор: u = 0</text>
<defs>
    <marker id="arrowLeft" markerWidth="10" markerHeight="10" refX="0" refY="3" orient="auto">
        <path d="M9,0 L9,6 L0,3 z" fill="green" />
    </marker>
    <marker id="arrowRight" markerWidth="10" markerHeight="10" refX="9" refY="3" orient="auto">
        <path d="M0,0 L0,6 L9,3 z" fill="green" />
    </marker>
</defs>
<line x1="234.0" y1="315" x2="234.0" y2="325" stroke="black" stroke-width="2"/>
<text x="234.0" y="305" text-anchor="middle" class="small">-3l/2</text>
<line x1="450.0" y1="315" x2="450.0" y2="325" stroke="black" stroke-width="2"/>
<text x="450.0" y="305" text-anchor="middle" class="small">0</text>
<line x1="666.0" y1="315" x2="666.0" y2="325" stroke="black" stroke-width="2"/>
<text x="666.0" y="305" text-anchor="middle" class="small">3l/2</text>
<text x="450" y="30" text-anchor="middle" class="title">t = 3l/(2c) (волны полностью разошлись)</text>
</svg>