<?xml version="1.0" encoding="UTF-8"?>
<svg width="900" height="400" xmlns="http://www.w3.org/2000/svg">
<defs>
    <style>
        text { font-family: Arial, sans-serif; }
        .title { font-size: 16px; font-weight: bold; }
        .label { font-size: 14px; }
        .small { font-size: 12px; }
    </style>
</defs>
<line x1="125.40000000000003" y1="320" x2="774.5999999999999" y2="320" stroke="black" stroke-width="2" marker-end="url(#arrowX)"/>
<line x1="450" y1="340" x2="450" y2="214.7" stroke="black" stroke-width="2" marker-end="url(#arrowY)"/>
<defs>
    <marker id="arrowX" markerWidth="10" markerHeight="10" refX="5" refY="3" orient="auto" markerUnits="strokeWidth">
        <path d="M0,0 L0,6 L9,3 z" fill="black" />
    </marker>
    <marker id="arrowY" markerWidth="10" markerHeight="10" refX="5" refY="3" orient="auto" markerUnits="strokeWidth">
        <path d="M0,0 L0,6 L9,3 z" fill="black" />
    </marker>
</defs>
<polyline points="90.0,320.0 96.0,317.5 102.0,315.0 108.0,312.5 114.0,310.0 120.0,307.5 126.0,305.0 132.0,302.5 138.0,300.0 144.0,297.5 150.0,295.0 156.0,292.5 162.0,290.0 168.0,287.5 174.0,285.0 180.0,282.5 186.0,280.0 192.0,277.5 198.0,275.0 204.0,272.5 210.0,270.0 216.0,267.5 222.0,265.0 228.0,262.5 234.0,260.0 240.0,257.5 246.0,255.0 252.0,252.5 258.0,250.0 264.0,247.5 270.0,245.0 276.0,247.5 282.0,250.0 288.0,252.5 294.0,255.0 300.0,257.5 306.0,260.0 312.0,262.5 318.0,265.0 324.0,267.5 330.0,270.0 336.0,272.5 342.0,275.0 348.0,277.5 354.0,280.0 360.0,282.5 366.0,285.0 372.0,287.5 378.0,290.0 384.0,292.5 390.0,295.0 396.0,297.5 402.0,300.0 408.0,302.5 414.0,305.0 420.0,307.5 426.0,310.0 432.0,312.5 438.0,315.0 444.0,317.5 450.0,320.0" fill="none" stroke="blue" stroke-width="4"/>
<polyline points="450.0,320.0 456.0,317.5 462.0,315.0 468.0,312.5 474.0,310.0 480.0,307.5 486.0,305.0 492.0,302.5 498.0,300.0 504.0,297.5 510.0,295.0 516.0,292.5 522.0,290.0 528.0,287.5 534.0,285.0 540.0,282.5 546.0,280.0 552.0,277.5 558.0,275.0 564.0,272.5 570.0,270.0 576.0,267.5 582.0,265.0 588.0,262.5 594.0,260.0 600.0,257.5 606.0,255.0 612.0,252.5 618.0,250.0 624.0,247.5 630.0,245.0 636.0,247.5 642.0,250.0 648.0,252.5 654.0,255.0 660.0,257.5 666.0,260.0 672.0,262.5 678.0,265.0 684.0,267.5 690.0,270.0 696.0,272.5 702.0,275.0 708.0,277.5 714.0,280.0 720.0,282.5 726.0,285.0 732.0,287.5 738.0,290.0 744.0,292.5 750.0,295.0 756.0,297.5 762.0,300.0 768.0,302.5 774.0,305.0 780.0,307.5 786.0,310.0 792.0,312.5 798.0,315.0 804.0,317.5 810.0,320.0" fill="none" stroke="red" stroke-width="4"/>
<circle cx="450" cy="320" r="6" fill="black"/>
<text x="450" y="350" text-anchor="middle" class="small">точка касания</text>
<line x1="90.0" y1="315" x2="90.0" y2="325" stroke="black" stroke-width="2"/>
<text x="90.0" y="370" text-anchor="middle" class="small">-2l</text>
<line x1="270.0" y1="315" x2="270.0" y2="325" stroke="black" stroke-width="2"/>
<text x="270.0" y="370" text-anchor="middle" class="small">-l</text>
<line x1="450.0" y1="315" x2="450.0" y2="325" stroke="black" stroke-width="2"/>
<text x="450.0" y="370" text-anchor="middle" class="small">0</text>
<line x1="630.0" y1="315" x2="630.0" y2="325" stroke="black" stroke-width="2"/>
<text x="630.0" y="370" text-anchor="middle" class="small">l</text>
<line x1="810.0" y1="315" x2="810.0" y2="325" stroke="black" stroke-width="2"/>
<text x="810.0" y="370" text-anchor="middle" class="small">2l</text>
<text x="285.0" y="245.0" class="small">h/2</text>
<text x="645.0" y="245.0" class="small">h/2</text>
<text x="450" y="30" text-anchor="middle" class="title">t = l/c (критический момент - волны касаются)</text>
</svg>