<?xml version="1.0" encoding="UTF-8"?>
<svg width="900" height="450" xmlns="http://www.w3.org/2000/svg">
<defs>
    <style>
        text { font-family: Arial, sans-serif; }
        .title { font-size: 18px; font-weight: bold; }
        .label { font-size: 14px; }
    </style>
</defs>
<line x1="157.5" y1="370" x2="742.5" y2="370" stroke="black" stroke-width="2" marker-end="url(#arrowX)"/>
<line x1="450" y1="390" x2="450" y2="172.0" stroke="black" stroke-width="2" marker-end="url(#arrowY)"/>
<defs>
    <marker id="arrowX" markerWidth="10" markerHeight="10" refX="5" refY="3" orient="auto" markerUnits="strokeWidth">
        <path d="M0,0 L0,6 L9,3 z" fill="black" />
    </marker>
    <marker id="arrowY" markerWidth="10" markerHeight="10" refX="5" refY="3" orient="auto" markerUnits="strokeWidth">
        <path d="M0,0 L0,6 L9,3 z" fill="black" />
    </marker>
</defs>
<polyline points="255.0,370.0 258.9,366.7 262.79999999999995,363.4 266.7,360.09999999999997 270.6,356.8 274.5,353.5 278.4,350.2 282.29999999999995,346.9 286.2,343.6 290.1,340.3 294.0,337.0 297.9,333.7 301.79999999999995,330.4 305.7,327.1 309.6,323.8 313.5,320.5 317.4,317.2 321.29999999999995,313.9 325.2,310.6 329.1,307.3 333.0,304.0 336.9,300.7 340.8,297.4 344.7,294.1 348.6,290.8 352.5,287.5 356.4,284.2 360.3,280.9 364.2,277.59999999999997 368.1,274.29999999999995 372.0,271.0 375.9,267.7 379.8,264.4 383.7,261.1 387.6,257.8 391.5,254.5 395.4,251.2 399.3,247.89999999999998 403.2,244.6 407.1,241.29999999999998 411.0,238.0 414.9,234.69999999999996 418.8,231.39999999999998 422.7,228.1 426.6,224.79999999999998 430.5,221.5 434.4,218.2 438.3,214.89999999999998 442.2,211.6 446.1,208.29999999999998 450.0,205.0 453.9,208.29999999999998 457.8,211.6 461.7,214.89999999999998 465.6,218.2 469.5,221.5 473.4,224.79999999999998 477.3,228.1 481.2,231.39999999999998 485.1,234.69999999999996 489.0,238.0 492.9,241.29999999999998 496.8,244.6 500.7,247.89999999999998 504.6,251.2 508.5,254.5 512.4,257.8 516.3,261.1 520.2,264.4 524.1,267.7 528.0,271.0 531.9,274.29999999999995 535.8,277.59999999999997 539.7,280.9 543.6,284.2 547.5,287.5 551.4,290.8 555.3,294.1 559.2,297.4 563.1,300.7 567.0,304.0 570.9,307.3 574.8,310.6 578.7,313.9 582.6,317.2 586.5,320.5 590.4,323.8 594.3,327.1 598.2,330.4 602.1,333.7 606.0,337.0 609.9,340.3 613.8,343.6 617.7,346.9 621.6,350.2 625.5,353.5 629.4,356.8 633.3,360.09999999999997 637.2,363.4 641.1,366.7 645.0,370.0" fill="none" stroke="blue" stroke-width="4"/>
<line x1="450" y1="370" x2="450" y2="205.0" stroke="gray" stroke-width="1" stroke-dasharray="5,5"/>
<text x="465" y="205.0" class="label">h</text>
<line x1="255.0" y1="365" x2="255.0" y2="375" stroke="black" stroke-width="2"/>
<text x="255.0" y="395" text-anchor="middle" class="label">-l</text>
<line x1="450.0" y1="365" x2="450.0" y2="375" stroke="black" stroke-width="2"/>
<text x="450.0" y="395" text-anchor="middle" class="label">0</text>
<line x1="645.0" y1="365" x2="645.0" y2="375" stroke="black" stroke-width="2"/>
<text x="645.0" y="395" text-anchor="middle" class="label">l</text>
<text x="450" y="35" text-anchor="middle" class="title">t = 0 (график 1)</text>
<text x="450" y="60" text-anchor="middle" font-size="14px" fill="#666">Начальный профиль</text>
</svg>