<?xml version="1.0" encoding="UTF-8"?>
<svg width="900" height="450" xmlns="http://www.w3.org/2000/svg">
<defs>
    <style>
        text { font-family: Arial, sans-serif; }
        .title { font-size: 18px; font-weight: bold; }
        .label { font-size: 14px; }
    </style>
</defs>
<line x1="157.5" y1="370" x2="742.5" y2="370" stroke="black" stroke-width="2" marker-end="url(#arrowX)"/>
<line x1="450" y1="390" x2="450" y2="172.0" stroke="black" stroke-width="2" marker-end="url(#arrowY)"/>
<defs>
    <marker id="arrowX" markerWidth="10" markerHeight="10" refX="5" refY="3" orient="auto" markerUnits="strokeWidth">
        <path d="M0,0 L0,6 L9,3 z" fill="black" />
    </marker>
    <marker id="arrowY" markerWidth="10" markerHeight="10" refX="5" refY="3" orient="auto" markerUnits="strokeWidth">
        <path d="M0,0 L0,6 L9,3 z" fill="black" />
    </marker>
</defs>
<polyline points="304.4,369.725 308.29999999999995,368.075 312.2,366.425 316.1,364.775 320.0,363.125 323.9,361.475 327.8,359.825 331.7,358.175 335.6,356.525 339.5,354.875 343.4,353.225 347.3,351.575 351.2,349.925 355.1,348.275 359.0,346.625 362.9,344.975 366.8,343.325 370.7,341.675 374.6,340.025 378.5,338.375 382.4,336.725 386.3,335.075 390.2,333.425 394.1,331.775 398.0,330.125 401.9,328.47499999999997 405.8,326.825 409.7,325.175 413.6,323.525 417.5,321.875 421.4,320.225 425.3,318.575 429.2,316.925 433.1,315.275 437.0,313.625 440.9,311.975 444.8,310.325 448.7,308.675 452.6,307.025 456.5,305.375 460.4,303.725 464.3,302.075 468.2,300.425 472.1,298.775 476.0,297.125 479.9,295.475 483.8,293.825 487.7,292.175 491.6,290.525 495.5,288.875 499.4,287.775 503.3,289.425 507.2,291.075 511.1,292.725 515.0,294.375 518.9,296.025 522.8,297.675 526.7,299.325 530.6,300.975 534.5,302.625 538.4,304.275 542.3,305.925 546.2,307.575 550.1,309.225 554.0,310.875 557.9,312.525 561.8,314.175 565.7,315.825 569.6,317.475 573.5,319.125 577.4,320.775 581.3,322.425 585.2,324.075 589.1,325.725 593.0,327.375 596.9,329.025 600.8,330.675 604.7,332.325 608.6,333.975 612.5,335.625 616.4,337.275 620.3,338.925 624.2,340.575 628.1,342.225 632.0,343.875 635.9,345.525 639.8,347.175 643.7,348.825 647.6,350.475 651.5,352.125 655.4,353.775 659.3,355.425 663.2,357.075 667.1,358.725 671.0,360.375 674.9,362.025 678.8,363.675 682.7,365.325 686.6,366.975 690.5,368.625" fill="none" stroke="red" stroke-width="4"/>
<polyline points="206.9,369.725 210.79999999999998,368.075 214.7,366.425 218.6,364.775 222.5,363.125 226.4,361.475 230.29999999999998,359.825 234.2,358.175 238.1,356.525 242.0,354.875 245.9,353.225 249.79999999999998,351.575 253.7,349.925 257.6,348.275 261.5,346.625 265.4,344.975 269.29999999999995,343.325 273.2,341.675 277.1,340.025 281.0,338.375 284.9,336.725 288.79999999999995,335.075 292.7,333.425 296.6,331.775 300.5,330.125 304.4,328.47499999999997 308.29999999999995,326.825 312.2,325.175 316.1,323.525 320.0,321.875 323.9,320.225 327.8,318.575 331.7,316.925 335.6,315.275 339.5,313.625 343.4,311.975 347.3,310.325 351.2,308.675 355.1,307.025 359.0,305.375 362.9,303.725 366.8,302.075 370.7,300.425 374.6,298.775 378.5,297.125 382.4,295.475 386.3,293.825 390.2,292.175 394.1,290.525 398.0,288.875 401.9,287.775 405.8,289.425 409.7,291.075 413.6,292.725 417.5,294.375 421.4,296.025 425.3,297.675 429.2,299.325 433.1,300.975 437.0,302.625 440.9,304.275 444.8,305.925 448.7,307.575 452.6,309.225 456.5,310.875 460.4,312.525 464.3,314.175 468.2,315.825 472.1,317.475 476.0,319.125 479.9,320.775 483.8,322.425 487.7,324.075 491.6,325.725 495.5,327.375 499.4,329.025 503.3,330.675 507.2,332.325 511.1,333.975 515.0,335.625 518.9,337.275 522.8,338.925 526.7,340.575 530.6,342.225 534.5,343.875 538.4,345.525 542.3,347.175 546.2,348.825 550.1,350.475 554.0,352.125 557.9,353.775 561.8,355.425 565.7,357.075 569.6,358.725 573.5,360.375 577.4,362.025 581.3,363.675 585.2,365.325 589.1,366.975 593.0,368.625" fill="none" stroke="blue" stroke-width="4"/>
<text x="508.75" y="287.5" class="label" fill="red">h/2</text>
<text x="361.25" y="287.5" class="label" fill="blue">h/2</text>
<line x1="401.25" y1="365" x2="401.25" y2="375" stroke="black" stroke-width="2"/>
<text x="401.25" y="395" text-anchor="middle" class="label">-0.25l</text>
<line x1="450.0" y1="365" x2="450.0" y2="375" stroke="black" stroke-width="2"/>
<text x="450.0" y="395" text-anchor="middle" class="label">0</text>
<line x1="498.75" y1="365" x2="498.75" y2="375" stroke="black" stroke-width="2"/>
<text x="498.75" y="395" text-anchor="middle" class="label">0.25l</text>
<text x="450" y="35" text-anchor="middle" class="title">t = l/(4c) (график 2)</text>
<text x="450" y="60" text-anchor="middle" font-size="14px" fill="#666">Волны перекрываются</text>
</svg>