<?xml version="1.0" encoding="UTF-8"?>
<svg width="900" height="450" xmlns="http://www.w3.org/2000/svg">
<defs>
    <style>
        text { font-family: Arial, sans-serif; }
        .title { font-size: 18px; font-weight: bold; }
        .label { font-size: 14px; }
    </style>
</defs>
<line x1="-76.5" y1="370" x2="976.5" y2="370" stroke="black" stroke-width="2" marker-end="url(#arrowX)"/>
<line x1="450" y1="390" x2="450" y2="172.0" stroke="black" stroke-width="2" marker-end="url(#arrowY)"/>
<defs>
    <marker id="arrowX" markerWidth="10" markerHeight="10" refX="5" refY="3" orient="auto" markerUnits="strokeWidth">
        <path d="M0,0 L0,6 L9,3 z" fill="black" />
    </marker>
    <marker id="arrowY" markerWidth="10" markerHeight="10" refX="5" refY="3" orient="auto" markerUnits="strokeWidth">
        <path d="M0,0 L0,6 L9,3 z" fill="black" />
    </marker>
</defs>
<polyline points="498.1,370.0 502.0,368.625 505.9,366.975 509.8,365.325 513.7,363.675 517.6,362.025 521.5,360.375 525.4,358.725 529.3,357.075 533.2,355.425 537.1,353.775 541.0,352.125 544.9,350.475 548.8,348.825 552.7,347.175 556.6,345.525 560.5,343.875 564.4,342.225 568.3,340.575 572.2,338.925 576.1,337.275 580.0,335.625 583.9,333.975 587.8,332.325 591.7,330.675 595.6,329.025 599.5,327.375 603.4,325.725 607.3,324.075 611.2,322.425 615.1,320.775 619.0,319.125 622.9,317.475 626.8,315.825 630.7,314.175 634.6,312.525 638.5,310.875 642.4,309.225 646.3,307.575 650.2,305.925 654.1,304.275 658.0,302.625 661.9,300.975 665.8,299.325 669.7,297.675 673.6,296.025 677.5,294.375 681.4,292.725 685.3,291.075 689.2,289.425 693.1,287.775 697.0,288.875 700.9,290.525 704.8,292.175 708.7,293.825 712.6,295.475 716.5,297.125 720.4000000000001,298.775 724.3,300.425 728.2,302.075 732.1,303.725 736.0,305.375 739.9000000000001,307.025 743.8,308.675 747.7,310.325 751.6,311.975 755.5,313.625 759.4000000000001,315.275 763.3,316.925 767.2,318.575 771.1,320.225 775.0,321.875 778.9000000000001,323.525 782.8,325.175 786.7,326.825 790.6,328.47499999999997 794.5,330.125 798.4000000000001,331.775 802.3,333.425 806.2,335.075 810.1,336.725 814.0,338.375 817.9000000000001,340.025 821.8,341.675 825.7,343.325 829.6,344.975 833.5,346.625 837.4000000000001,348.275 841.3,349.925 845.2,351.575 849.1,353.225 853.0,354.875 856.9000000000001,356.525 860.8,358.175 864.7,359.825 868.6,361.475 872.5,363.125 876.4000000000001,364.775 880.3,366.425 884.2,368.075 888.1,369.725" fill="none" stroke="red" stroke-width="4"/>
<polyline points="11.899999999999977,369.725 15.800000000000011,368.075 19.69999999999999,366.425 23.599999999999966,364.775 27.5,363.125 31.399999999999977,361.475 35.30000000000001,359.825 39.19999999999999,358.175 43.099999999999966,356.525 47.0,354.875 50.89999999999998,353.225 54.80000000000001,351.575 58.69999999999999,349.925 62.599999999999966,348.275 66.5,346.625 70.39999999999998,344.975 74.30000000000001,343.325 78.19999999999999,341.675 82.09999999999997,340.025 86.0,338.375 89.89999999999998,336.725 93.80000000000001,335.075 97.69999999999999,333.425 101.59999999999997,331.775 105.5,330.125 109.39999999999998,328.47499999999997 113.30000000000001,326.825 117.19999999999999,325.175 121.09999999999997,323.525 125.0,321.875 128.89999999999998,320.225 132.8,318.575 136.7,316.925 140.59999999999997,315.275 144.5,313.625 148.39999999999998,311.975 152.3,310.325 156.2,308.675 160.09999999999997,307.025 164.0,305.375 167.89999999999998,303.725 171.8,302.075 175.7,300.425 179.59999999999997,298.775 183.5,297.125 187.39999999999998,295.475 191.3,293.825 195.2,292.175 199.1,290.525 203.0,288.875 206.9,287.775 210.79999999999998,289.425 214.7,291.075 218.6,292.725 222.5,294.375 226.4,296.025 230.29999999999998,297.675 234.2,299.325 238.1,300.975 242.0,302.625 245.9,304.275 249.79999999999998,305.925 253.7,307.575 257.6,309.225 261.5,310.875 265.4,312.525 269.29999999999995,314.175 273.2,315.825 277.1,317.475 281.0,319.125 284.9,320.775 288.79999999999995,322.425 292.7,324.075 296.6,325.725 300.5,327.375 304.4,329.025 308.29999999999995,330.675 312.2,332.325 316.1,333.975 320.0,335.625 323.9,337.275 327.8,338.925 331.7,340.575 335.6,342.225 339.5,343.875 343.4,345.525 347.3,347.175 351.2,348.825 355.1,350.475 359.0,352.125 362.9,353.775 366.8,355.425 370.7,357.075 374.6,358.725 378.5,360.375 382.4,362.025 386.3,363.675 390.2,365.325 394.1,366.975 398.0,368.625 401.9,370.0" fill="none" stroke="blue" stroke-width="4"/>
<line x1="401.25" y1="370" x2="498.75" y2="370" stroke="green" stroke-width="4"/>
<text x="703.75" y="287.5" class="label" fill="red">h/2</text>
<text x="166.25" y="287.5" class="label" fill="blue">h/2</text>
<line x1="11.25" y1="365" x2="11.25" y2="375" stroke="black" stroke-width="2"/>
<text x="11.25" y="395" text-anchor="middle" class="label">-2.25l</text>
<line x1="206.25" y1="365" x2="206.25" y2="375" stroke="black" stroke-width="2"/>
<text x="206.25" y="395" text-anchor="middle" class="label">-1.25l</text>
<line x1="450.0" y1="365" x2="450.0" y2="375" stroke="black" stroke-width="2"/>
<text x="450.0" y="395" text-anchor="middle" class="label">0</text>
<line x1="693.75" y1="365" x2="693.75" y2="375" stroke="black" stroke-width="2"/>
<text x="693.75" y="395" text-anchor="middle" class="label">1.25l</text>
<line x1="888.75" y1="365" x2="888.75" y2="375" stroke="black" stroke-width="2"/>
<text x="888.75" y="395" text-anchor="middle" class="label">2.25l</text>
<text x="450" y="35" text-anchor="middle" class="title">t = 5l/(4c) (график 6)</text>
<text x="450" y="60" text-anchor="middle" font-size="14px" fill="#666">Волны полностью разошлись</text>
</svg>