<?xml version="1.0" encoding="UTF-8"?>
<svg width="900" height="450" xmlns="http://www.w3.org/2000/svg">
<defs>
    <style>
        text { font-family: Arial, sans-serif; }
        .title { font-size: 18px; font-weight: bold; }
        .label { font-size: 14px; }
    </style>
</defs>
<line x1="40.5" y1="370" x2="859.5" y2="370" stroke="black" stroke-width="2" marker-end="url(#arrowX)"/>
<line x1="450" y1="390" x2="450" y2="172.0" stroke="black" stroke-width="2" marker-end="url(#arrowY)"/>
<defs>
    <marker id="arrowX" markerWidth="10" markerHeight="10" refX="5" refY="3" orient="auto" markerUnits="strokeWidth">
        <path d="M0,0 L0,6 L9,3 z" fill="black" />
    </marker>
    <marker id="arrowY" markerWidth="10" markerHeight="10" refX="5" refY="3" orient="auto" markerUnits="strokeWidth">
        <path d="M0,0 L0,6 L9,3 z" fill="black" />
    </marker>
</defs>
<polyline points="401.9,369.725 405.8,368.075 409.7,366.425 413.6,364.775 417.5,363.125 421.4,361.475 425.3,359.825 429.2,358.175 433.1,356.525 437.0,354.875 440.9,353.225 444.8,351.575 448.7,349.925 452.6,348.275 456.5,346.625 460.4,344.975 464.3,343.325 468.2,341.675 472.1,340.025 476.0,338.375 479.9,336.725 483.8,335.075 487.7,333.425 491.6,331.775 495.5,330.125 499.4,328.47499999999997 503.3,326.825 507.2,325.175 511.1,323.525 515.0,321.875 518.9,320.225 522.8,318.575 526.7,316.925 530.6,315.275 534.5,313.625 538.4,311.975 542.3,310.325 546.2,308.675 550.1,307.025 554.0,305.375 557.9,303.725 561.8,302.075 565.7,300.425 569.6,298.775 573.5,297.125 577.4,295.475 581.3,293.825 585.2,292.175 589.1,290.525 593.0,288.875 596.9,287.775 600.8,289.425 604.7,291.075 608.6,292.725 612.5,294.375 616.4,296.025 620.3,297.675 624.2,299.325 628.1,300.975 632.0,302.625 635.9,304.275 639.8,305.925 643.7,307.575 647.6,309.225 651.5,310.875 655.4,312.525 659.3,314.175 663.2,315.825 667.1,317.475 671.0,319.125 674.9,320.775 678.8,322.425 682.7,324.075 686.6,325.725 690.5,327.375 694.4,329.025 698.3,330.675 702.2,332.325 706.1,333.975 710.0,335.625 713.9000000000001,337.275 717.8,338.925 721.7,340.575 725.6,342.225 729.5,343.875 733.4000000000001,345.525 737.3,347.175 741.2,348.825 745.1,350.475 749.0,352.125 752.9000000000001,353.775 756.8,355.425 760.7,357.075 764.6,358.725 768.5,360.375 772.4000000000001,362.025 776.3,363.675 780.2,365.325 784.1,366.975 788.0,368.625" fill="none" stroke="red" stroke-width="4"/>
<polyline points="109.39999999999998,369.725 113.30000000000001,368.075 117.19999999999999,366.425 121.09999999999997,364.775 125.0,363.125 128.89999999999998,361.475 132.8,359.825 136.7,358.175 140.59999999999997,356.525 144.5,354.875 148.39999999999998,353.225 152.3,351.575 156.2,349.925 160.09999999999997,348.275 164.0,346.625 167.89999999999998,344.975 171.8,343.325 175.7,341.675 179.59999999999997,340.025 183.5,338.375 187.39999999999998,336.725 191.3,335.075 195.2,333.425 199.1,331.775 203.0,330.125 206.9,328.47499999999997 210.79999999999998,326.825 214.7,325.175 218.6,323.525 222.5,321.875 226.4,320.225 230.29999999999998,318.575 234.2,316.925 238.1,315.275 242.0,313.625 245.9,311.975 249.79999999999998,310.325 253.7,308.675 257.6,307.025 261.5,305.375 265.4,303.725 269.29999999999995,302.075 273.2,300.425 277.1,298.775 281.0,297.125 284.9,295.475 288.79999999999995,293.825 292.7,292.175 296.6,290.525 300.5,288.875 304.4,287.775 308.29999999999995,289.425 312.2,291.075 316.1,292.725 320.0,294.375 323.9,296.025 327.8,297.675 331.7,299.325 335.6,300.975 339.5,302.625 343.4,304.275 347.3,305.925 351.2,307.575 355.1,309.225 359.0,310.875 362.9,312.525 366.8,314.175 370.7,315.825 374.6,317.475 378.5,319.125 382.4,320.775 386.3,322.425 390.2,324.075 394.1,325.725 398.0,327.375 401.9,329.025 405.8,330.675 409.7,332.325 413.6,333.975 417.5,335.625 421.4,337.275 425.3,338.925 429.2,340.575 433.1,342.225 437.0,343.875 440.9,345.525 444.8,347.175 448.7,348.825 452.6,350.475 456.5,352.125 460.4,353.775 464.3,355.425 468.2,357.075 472.1,358.725 476.0,360.375 479.9,362.025 483.8,363.675 487.7,365.325 491.6,366.975 495.5,368.625" fill="none" stroke="blue" stroke-width="4"/>
<text x="606.25" y="287.5" class="label" fill="red">h/2</text>
<text x="263.75" y="287.5" class="label" fill="blue">h/2</text>
<line x1="303.75" y1="365" x2="303.75" y2="375" stroke="black" stroke-width="2"/>
<text x="303.75" y="395" text-anchor="middle" class="label">-0.75l</text>
<line x1="450.0" y1="365" x2="450.0" y2="375" stroke="black" stroke-width="2"/>
<text x="450.0" y="395" text-anchor="middle" class="label">0</text>
<line x1="596.25" y1="365" x2="596.25" y2="375" stroke="black" stroke-width="2"/>
<text x="596.25" y="395" text-anchor="middle" class="label">0.75l</text>
<text x="450" y="35" text-anchor="middle" class="title">t = 3l/(4c) (график 4)</text>
<text x="450" y="60" text-anchor="middle" font-size="14px" fill="#666">Волны перекрываются</text>
</svg>