<?xml version="1.0" encoding="UTF-8"?>
<svg width="900" height="450" xmlns="http://www.w3.org/2000/svg">
<defs>
    <style>
        text { font-family: Arial, sans-serif; }
        .title { font-size: 18px; font-weight: bold; }
        .label { font-size: 14px; }
    </style>
</defs>
<line x1="-135.0" y1="370" x2="1035.0" y2="370" stroke="black" stroke-width="2" marker-end="url(#arrowX)"/>
<line x1="450" y1="390" x2="450" y2="172.0" stroke="black" stroke-width="2" marker-end="url(#arrowY)"/>
<defs>
    <marker id="arrowX" markerWidth="10" markerHeight="10" refX="5" refY="3" orient="auto" markerUnits="strokeWidth">
        <path d="M0,0 L0,6 L9,3 z" fill="black" />
    </marker>
    <marker id="arrowY" markerWidth="10" markerHeight="10" refX="5" refY="3" orient="auto" markerUnits="strokeWidth">
        <path d="M0,0 L0,6 L9,3 z" fill="black" />
    </marker>
</defs>
<polyline points="547.5,370.0 551.4,368.35 555.3,366.7 559.2,365.05 563.1,363.4 567.0,361.75 570.9,360.1 574.8,358.45 578.7,356.8 582.6,355.15 586.5,353.5 590.4,351.85 594.3,350.2 598.2,348.55 602.1,346.9 606.0,345.25 609.9,343.6 613.8,341.95 617.7,340.3 621.6,338.65 625.5,337.0 629.4,335.35 633.3,333.7 637.2,332.05 641.1,330.4 645.0,328.75 648.9,327.1 652.8,325.45 656.7,323.8 660.6,322.15 664.5,320.5 668.4,318.85 672.3,317.2 676.2,315.55 680.1,313.9 684.0,312.25 687.9,310.6 691.8,308.95 695.7,307.3 699.6,305.65 703.5,304.0 707.4000000000001,302.34999999999997 711.3,300.7 715.2,299.05 719.1,297.4 723.0,295.75 726.9000000000001,294.1 730.8,292.45 734.7,290.8 738.6,289.15 742.5,287.5 746.4000000000001,289.15 750.3,290.8 754.2,292.45 758.1,294.1 762.0,295.75 765.9000000000001,297.4 769.8,299.05 773.7,300.7 777.6,302.34999999999997 781.5,304.0 785.4000000000001,305.65 789.3,307.3 793.2,308.95 797.1,310.6 801.0,312.25 804.9000000000001,313.9 808.8,315.55 812.7,317.2 816.6,318.85 820.5,320.5 824.4000000000001,322.15 828.3,323.8 832.2,325.45 836.1,327.1 840.0,328.75 843.9000000000001,330.4 847.8,332.05 851.7,333.7 855.6,335.35 859.5,337.0 863.4000000000001,338.65 867.3,340.3 871.2,341.95 875.1,343.6 879.0,345.25 882.9000000000001,346.9 886.8,348.55 890.7,350.2 894.6,351.85 898.5,353.5 902.4000000000001,355.15 906.3,356.8 910.2,358.45 914.1,360.1 918.0,361.75 921.9000000000001,363.4 925.8,365.05 929.7,366.7 933.6,368.35 937.5,370.0" fill="none" stroke="red" stroke-width="4"/>
<polyline points="-37.5,370.0 -33.60000000000002,368.35 -29.69999999999999,366.7 -25.80000000000001,365.05 -21.900000000000034,363.4 -18.0,361.75 -14.100000000000023,360.1 -10.199999999999989,358.45 -6.300000000000011,356.8 -2.400000000000034,355.15 1.5,353.5 5.399999999999977,351.85 9.300000000000011,350.2 13.199999999999989,348.55 17.099999999999966,346.9 21.0,345.25 24.899999999999977,343.6 28.80000000000001,341.95 32.69999999999999,340.3 36.599999999999966,338.65 40.5,337.0 44.39999999999998,335.35 48.30000000000001,333.7 52.19999999999999,332.05 56.099999999999966,330.4 60.0,328.75 63.89999999999998,327.1 67.80000000000001,325.45 71.69999999999999,323.8 75.59999999999997,322.15 79.5,320.5 83.39999999999998,318.85 87.30000000000001,317.2 91.19999999999999,315.55 95.09999999999997,313.9 99.0,312.25 102.89999999999998,310.6 106.80000000000001,308.95 110.69999999999999,307.3 114.59999999999997,305.65 118.5,304.0 122.39999999999998,302.34999999999997 126.30000000000001,300.7 130.2,299.05 134.09999999999997,297.4 138.0,295.75 141.89999999999998,294.1 145.8,292.45 149.7,290.8 153.59999999999997,289.15 157.5,287.5 161.39999999999998,289.15 165.3,290.8 169.2,292.45 173.09999999999997,294.1 177.0,295.75 180.89999999999998,297.4 184.8,299.05 188.7,300.7 192.59999999999997,302.34999999999997 196.5,304.0 200.39999999999998,305.65 204.29999999999998,307.3 208.2,308.95 212.1,310.6 216.0,312.25 219.9,313.9 223.79999999999998,315.55 227.7,317.2 231.6,318.85 235.5,320.5 239.4,322.15 243.29999999999998,323.8 247.2,325.45 251.1,327.1 255.0,328.75 258.9,330.4 262.79999999999995,332.05 266.7,333.7 270.6,335.35 274.5,337.0 278.4,338.65 282.29999999999995,340.3 286.2,341.95 290.1,343.6 294.0,345.25 297.9,346.9 301.79999999999995,348.55 305.7,350.2 309.6,351.85 313.5,353.5 317.4,355.15 321.29999999999995,356.8 325.2,358.45 329.1,360.1 333.0,361.75 336.9,363.4 340.8,365.05 344.7,366.7 348.6,368.35 352.5,370.0" fill="none" stroke="blue" stroke-width="4"/>
<line x1="352.5" y1="370" x2="547.5" y2="370" stroke="green" stroke-width="4"/>
<text x="752.5" y="287.5" class="label" fill="red">h/2</text>
<text x="117.5" y="287.5" class="label" fill="blue">h/2</text>
<line x1="-37.5" y1="365" x2="-37.5" y2="375" stroke="black" stroke-width="2"/>
<text x="-37.5" y="395" text-anchor="middle" class="label">-2.5l</text>
<line x1="157.5" y1="365" x2="157.5" y2="375" stroke="black" stroke-width="2"/>
<text x="157.5" y="395" text-anchor="middle" class="label">-1.5l</text>
<line x1="450.0" y1="365" x2="450.0" y2="375" stroke="black" stroke-width="2"/>
<text x="450.0" y="395" text-anchor="middle" class="label">0</text>
<line x1="742.5" y1="365" x2="742.5" y2="375" stroke="black" stroke-width="2"/>
<text x="742.5" y="395" text-anchor="middle" class="label">1.5l</text>
<line x1="937.5" y1="365" x2="937.5" y2="375" stroke="black" stroke-width="2"/>
<text x="937.5" y="395" text-anchor="middle" class="label">2.5l</text>
<text x="450" y="35" text-anchor="middle" class="title">t = 3l/(2c) (график 7)</text>
<text x="450" y="60" text-anchor="middle" font-size="14px" fill="#666">Волны полностью разошлись</text>
</svg>