<?xml version="1.0" encoding="UTF-8"?>
<svg width="900" height="450" xmlns="http://www.w3.org/2000/svg">
<defs>
    <style>
        text { font-family: Arial, sans-serif; }
        .title { font-size: 18px; font-weight: bold; }
        .label { font-size: 14px; }
    </style>
</defs>
<line x1="-193.5" y1="370" x2="1093.5" y2="370" stroke="black" stroke-width="2" marker-end="url(#arrowX)"/>
<line x1="450" y1="390" x2="450" y2="172.0" stroke="black" stroke-width="2" marker-end="url(#arrowY)"/>
<defs>
    <marker id="arrowX" markerWidth="10" markerHeight="10" refX="5" refY="3" orient="auto" markerUnits="strokeWidth">
        <path d="M0,0 L0,6 L9,3 z" fill="black" />
    </marker>
    <marker id="arrowY" markerWidth="10" markerHeight="10" refX="5" refY="3" orient="auto" markerUnits="strokeWidth">
        <path d="M0,0 L0,6 L9,3 z" fill="black" />
    </marker>
</defs>
<polyline points="595.6,370.0 599.5,368.625 603.4,366.975 607.3,365.325 611.2,363.675 615.1,362.025 619.0,360.375 622.9,358.725 626.8,357.075 630.7,355.425 634.6,353.775 638.5,352.125 642.4,350.475 646.3,348.825 650.2,347.175 654.1,345.525 658.0,343.875 661.9,342.225 665.8,340.575 669.7,338.925 673.6,337.275 677.5,335.625 681.4,333.975 685.3,332.325 689.2,330.675 693.1,329.025 697.0,327.375 700.9,325.725 704.8,324.075 708.7,322.425 712.6,320.775 716.5,319.125 720.4000000000001,317.475 724.3,315.825 728.2,314.175 732.1,312.525 736.0,310.875 739.9000000000001,309.225 743.8,307.575 747.7,305.925 751.6,304.275 755.5,302.625 759.4000000000001,300.975 763.3,299.325 767.2,297.675 771.1,296.025 775.0,294.375 778.9000000000001,292.725 782.8,291.075 786.7,289.425 790.6,287.775 794.5,288.875 798.4000000000001,290.525 802.3,292.175 806.2,293.825 810.1,295.475 814.0,297.125 817.9000000000001,298.775 821.8,300.425 825.7,302.075 829.6,303.725 833.5,305.375 837.4000000000001,307.025 841.3,308.675 845.2,310.325 849.1,311.975 853.0,313.625 856.9000000000001,315.275 860.8,316.925 864.7,318.575 868.6,320.225 872.5,321.875 876.4000000000001,323.525 880.3,325.175 884.2,326.825 888.1,328.47499999999997 892.0,330.125 895.9000000000001,331.775 899.8,333.425 903.7,335.075 907.6,336.725 911.5,338.375 915.4000000000001,340.025 919.3,341.675 923.2,343.325 927.1,344.975 931.0,346.625 934.9000000000001,348.275 938.8,349.925 942.7,351.575 946.6,353.225 950.5,354.875 954.4000000000001,356.525 958.3,358.175 962.2,359.825 966.1,361.475 970.0,363.125 973.9,364.775 977.8000000000001,366.425 981.7,368.075 985.6,369.725" fill="none" stroke="red" stroke-width="4"/>
<polyline points="-85.60000000000002,369.725 -81.70000000000005,368.075 -77.80000000000007,366.425 -73.89999999999998,364.775 -70.0,363.125 -66.10000000000002,361.475 -62.200000000000045,359.825 -58.30000000000001,358.175 -54.400000000000034,356.525 -50.5,354.875 -46.60000000000002,353.225 -42.69999999999999,351.575 -38.80000000000001,349.925 -34.900000000000034,348.275 -31.0,346.625 -27.100000000000023,344.975 -23.19999999999999,343.325 -19.30000000000001,341.675 -15.400000000000034,340.025 -11.5,338.375 -7.600000000000023,336.725 -3.6999999999999886,335.075 0.19999999999998863,333.425 4.099999999999966,331.775 8.0,330.125 11.899999999999977,328.47499999999997 15.800000000000011,326.825 19.69999999999999,325.175 23.599999999999966,323.525 27.5,321.875 31.399999999999977,320.225 35.30000000000001,318.575 39.19999999999999,316.925 43.099999999999966,315.275 47.0,313.625 50.89999999999998,311.975 54.80000000000001,310.325 58.69999999999999,308.675 62.599999999999966,307.025 66.5,305.375 70.39999999999998,303.725 74.30000000000001,302.075 78.19999999999999,300.425 82.09999999999997,298.775 86.0,297.125 89.89999999999998,295.475 93.80000000000001,293.825 97.69999999999999,292.175 101.59999999999997,290.525 105.5,288.875 109.39999999999998,287.775 113.30000000000001,289.425 117.19999999999999,291.075 121.09999999999997,292.725 125.0,294.375 128.89999999999998,296.025 132.8,297.675 136.7,299.325 140.59999999999997,300.975 144.5,302.625 148.39999999999998,304.275 152.3,305.925 156.2,307.575 160.09999999999997,309.225 164.0,310.875 167.89999999999998,312.525 171.8,314.175 175.7,315.825 179.59999999999997,317.475 183.5,319.125 187.39999999999998,320.775 191.3,322.425 195.2,324.075 199.1,325.725 203.0,327.375 206.9,329.025 210.79999999999998,330.675 214.7,332.325 218.6,333.975 222.5,335.625 226.4,337.275 230.29999999999998,338.925 234.2,340.575 238.1,342.225 242.0,343.875 245.9,345.525 249.79999999999998,347.175 253.7,348.825 257.6,350.475 261.5,352.125 265.4,353.775 269.29999999999995,355.425 273.2,357.075 277.1,358.725 281.0,360.375 284.9,362.025 288.79999999999995,363.675 292.7,365.325 296.6,366.975 300.5,368.625 304.4,370.0" fill="none" stroke="blue" stroke-width="4"/>
<line x1="303.75" y1="370" x2="596.25" y2="370" stroke="green" stroke-width="4"/>
<text x="801.25" y="287.5" class="label" fill="red">h/2</text>
<text x="68.75" y="287.5" class="label" fill="blue">h/2</text>
<line x1="-86.25" y1="365" x2="-86.25" y2="375" stroke="black" stroke-width="2"/>
<text x="-86.25" y="395" text-anchor="middle" class="label">-2.75l</text>
<line x1="108.75" y1="365" x2="108.75" y2="375" stroke="black" stroke-width="2"/>
<text x="108.75" y="395" text-anchor="middle" class="label">-1.75l</text>
<line x1="450.0" y1="365" x2="450.0" y2="375" stroke="black" stroke-width="2"/>
<text x="450.0" y="395" text-anchor="middle" class="label">0</text>
<line x1="791.25" y1="365" x2="791.25" y2="375" stroke="black" stroke-width="2"/>
<text x="791.25" y="395" text-anchor="middle" class="label">1.75l</text>
<line x1="986.25" y1="365" x2="986.25" y2="375" stroke="black" stroke-width="2"/>
<text x="986.25" y="395" text-anchor="middle" class="label">2.75l</text>
<text x="450" y="35" text-anchor="middle" class="title">t = 7l/(4c) (график 8)</text>
<text x="450" y="60" text-anchor="middle" font-size="14px" fill="#666">Волны полностью разошлись</text>
</svg>